<?xml version="1.0" standalone="no"?>
<!DOCTYPE svg PUBLIC "-//W3C//DTD SVG 20010904//EN"
 "http://www.w3.org/TR/2001/REC-SVG-20010904/DTD/svg10.dtd">
<svg version="1.0" xmlns="http://www.w3.org/2000/svg"
 width="512.000000pt" height="512.000000pt" viewBox="0 0 512.000000 512.000000"
 preserveAspectRatio="xMidYMid meet">
<metadata>
Created by potrace 1.14, written by Peter Selinger 2001-2017
</metadata>
<g transform="translate(0.000000,512.000000) scale(0.100000,-0.100000)"
fill="#000000" stroke="none">
<path d="M1771 3994 c0 -11 3 -14 6 -6 3 7 2 16 -1 19 -3 4 -6 -2 -5 -13z"/>
<path d="M3292 3994 c2 -11 -1 -21 -7 -21 -5 -1 -9 3 -8 8 2 4 -4 6 -12 2 -13
-4 -13 -8 -3 -22 11 -14 11 -14 -2 -5 -8 6 -25 14 -37 16 -17 5 -20 2 -15 -11
4 -13 3 -14 -9 -5 -16 12 -64 -7 -51 -21 4 -5 2 -5 -4 -2 -7 4 -17 0 -24 -8
-9 -11 -17 -12 -31 -4 -13 6 -19 6 -19 -1 0 -5 -7 -10 -16 -10 -8 0 -12 -4 -9
-10 3 -5 1 -10 -4 -10 -19 0 -25 -2 -46 -12 l-20 -9 20 17 c11 9 13 14 5 10
-8 -3 -23 -9 -32 -12 -10 -4 -18 -11 -18 -16 0 -5 5 -6 12 -2 7 4 8 3 4 -5 -6
-9 -11 -9 -24 1 -12 10 -14 10 -8 1 4 -7 2 -14 -3 -14 -6 -1 -15 -2 -20 -3 -5
0 -13 -5 -18 -10 -4 -5 -3 -6 4 -2 6 3 15 2 18 -4 4 -6 3 -10 -2 -9 -24 4 -43
-2 -37 -12 4 -7 -1 -7 -16 1 -12 6 -24 9 -28 6 -3 -3 0 -6 6 -6 7 0 12 -5 12
-11 0 -5 -4 -8 -9 -4 -5 3 -12 -4 -16 -15 -3 -11 -11 -20 -17 -20 -6 0 -7 5
-2 13 5 7 1 4 -8 -6 -11 -12 -25 -17 -34 -13 -14 5 -15 4 -5 -8 9 -11 9 -16 0
-22 -7 -4 -9 -3 -5 4 4 6 -1 10 -12 9 -11 0 -19 -8 -18 -17 1 -9 -7 -15 -21
-14 -12 1 -21 -4 -20 -10 1 -6 -8 -10 -21 -10 -17 1 -22 -3 -17 -14 4 -12 3
-13 -10 -2 -13 11 -14 10 -9 -5 5 -13 4 -16 -4 -11 -7 4 -12 1 -12 -8 0 -16
-20 -18 -31 -3 -4 5 -9 -3 -13 -17 -7 -27 -20 -34 -31 -16 -4 6 -11 8 -16 5
-5 -4 -9 -1 -9 4 0 6 6 11 13 11 8 0 7 4 -3 10 -8 5 -24 7 -35 5 -11 -3 -14
-2 -7 1 20 9 14 27 -9 21 -17 -5 -18 -3 -7 11 10 12 10 14 1 8 -8 -4 -13 -2
-13 4 0 6 -4 8 -10 5 -5 -3 -10 -1 -10 6 0 8 -5 7 -17 -2 -15 -13 -15 -12 -3
11 13 24 12 24 -5 10 -17 -14 -18 -13 -13 8 5 19 4 21 -8 11 -11 -9 -14 -9
-14 0 0 7 -5 9 -12 5 -8 -5 -9 -2 -5 9 4 10 2 16 -6 14 -7 -1 -11 4 -9 11 1 8
-2 11 -8 7 -6 -3 -8 -11 -5 -16 3 -5 -1 -6 -10 -3 -12 5 -13 9 -4 20 10 12 9
13 -5 8 -9 -3 -16 -1 -16 5 0 6 -5 11 -11 11 -5 0 -7 -5 -3 -12 4 -7 3 -8 -5
-4 -9 6 -9 11 0 22 10 12 9 13 -5 8 -10 -4 -18 0 -22 11 -5 12 -9 13 -14 5 -5
-9 -10 -6 -15 10 -6 17 -13 21 -35 18 -16 -2 -27 -1 -24 4 3 4 -2 11 -10 14
-9 3 -13 11 -10 16 5 7 1 7 -12 0 -20 -11 -68 13 -58 29 3 5 0 9 -5 9 -6 0
-11 -7 -11 -16 0 -10 -7 -6 -24 13 -20 23 -26 25 -39 15 -12 -10 -17 -10 -23
-1 -5 8 -3 9 6 4 9 -5 11 -4 6 3 -5 9 -13 9 -27 2 -15 -9 -19 -7 -19 7 0 15
-2 16 -10 3 -5 -8 -10 -11 -10 -6 0 5 -8 2 -17 -5 -11 -10 -14 -10 -9 -1 4 7
2 12 -8 12 -8 0 -17 -6 -19 -12 -3 -8 -6 -6 -6 5 -1 14 -5 16 -21 7 -16 -8
-18 -8 -14 4 7 18 -17 16 -42 -4 -11 -9 -15 -10 -10 -2 4 7 2 12 -4 12 -6 0
-8 5 -4 12 4 6 3 8 -4 5 -5 -4 -8 -17 -5 -30 4 -21 3 -21 -11 3 -8 14 -15 20
-16 14 0 -7 -7 -15 -16 -18 -14 -5 -15 -4 -5 8 9 11 9 16 0 22 -8 5 -9 3 -4
-6 6 -10 3 -12 -13 -8 -12 4 -25 1 -29 -4 -3 -6 -1 -8 5 -4 6 3 14 1 18 -5 4
-7 3 -9 -4 -5 -5 3 -13 0 -15 -6 -4 -10 -6 -10 -6 0 -1 7 -6 10 -11 7 -6 -4
-9 -1 -8 5 2 7 -5 14 -15 15 -9 2 -15 0 -12 -5 3 -4 -2 -13 -9 -19 -11 -9 -16
-9 -22 0 -5 8 -3 9 6 4 9 -6 11 -4 5 5 -6 10 -11 9 -21 -4 -7 -10 -15 -13 -18
-7 -7 11 -32 9 -43 -4 -4 -4 -1 -5 7 0 12 6 13 5 3 -5 -10 -11 -16 -10 -34 6
-13 10 -19 13 -15 7 4 -7 2 -13 -3 -13 -6 0 -11 -5 -11 -11 0 -8 6 -7 18 2 14
11 15 11 5 -1 -14 -15 -46 -23 -37 -9 3 5 -7 4 -23 -2 -15 -6 -29 -10 -31 -9
-2 1 -7 -2 -10 -6 -4 -4 -2 -4 5 0 6 3 14 2 17 -3 4 -5 -5 -8 -19 -6 -14 1
-28 -2 -31 -7 -3 -4 -10 -5 -16 -2 -7 4 -8 2 -4 -5 6 -9 12 -9 24 1 15 12 16
11 4 -4 -10 -13 -19 -15 -38 -8 -20 8 -24 7 -24 -10 0 -11 -5 -20 -11 -20 -5
0 -8 4 -5 8 3 5 -2 9 -10 9 -8 0 -13 -6 -10 -13 3 -8 1 -16 -4 -19 -4 -3 -11
1 -13 7 -5 11 -11 -15 -9 -33 1 -4 -8 -4 -20 -1 -17 4 -20 2 -14 -13 6 -16 4
-16 -11 -4 -11 9 -14 10 -9 2 4 -8 2 -13 -4 -13 -6 0 -9 -4 -5 -9 3 -6 -4 -8
-15 -6 -11 2 -20 -1 -20 -6 0 -6 -7 -17 -15 -26 -8 -8 -13 -19 -10 -24 4 -5
-1 -6 -10 -3 -9 4 -15 3 -14 -2 3 -20 -2 -34 -12 -34 -5 0 -7 6 -3 13 4 7 3 9
-2 4 -5 -5 -9 -18 -9 -30 0 -11 -7 -22 -15 -24 -13 -4 -13 -3 0 7 10 8 11 10
2 8 -8 -2 -12 -6 -10 -9 2 -3 -3 -13 -10 -22 -8 -9 -11 -21 -8 -26 4 -5 1 -13
-5 -17 -7 -4 -9 -3 -5 4 3 6 3 13 -1 15 -5 3 -9 -8 -9 -24 -1 -17 2 -26 9 -22
6 3 7 1 3 -6 -4 -7 -17 -9 -29 -6 -12 4 -17 3 -12 -2 16 -13 16 -33 -1 -33 -8
0 -12 -5 -9 -10 4 -6 11 -7 17 -4 7 4 8 2 4 -4 -4 -7 -14 -12 -22 -12 -8 0
-14 -5 -14 -11 0 -5 5 -7 11 -3 7 4 10 1 7 -7 -3 -8 -11 -13 -18 -11 -11 2
-11 0 -1 -12 9 -11 9 -16 0 -22 -8 -5 -9 -3 -4 7 8 12 6 12 -8 0 -19 -15 -13
-33 8 -24 8 3 15 2 15 -1 0 -4 -10 -11 -22 -16 -20 -8 -21 -9 -4 -9 20 -1 20
-1 0 -16 -14 -11 -15 -14 -4 -15 13 0 13 -1 0 -10 -13 -9 -13 -10 0 -10 12 0
12 -2 2 -9 -8 -4 -13 -11 -13 -15 3 -20 0 -26 -11 -20 -7 4 -8 3 -4 -5 6 -9
12 -9 24 1 15 11 15 11 5 -3 -7 -9 -9 -20 -5 -24 4 -5 -1 -5 -10 -2 -13 4 -16
1 -13 -15 3 -11 7 -23 10 -26 2 -3 0 -11 -6 -19 -6 -7 -8 -13 -4 -13 4 0 2 -6
-4 -14 -9 -11 -8 -18 6 -32 17 -17 17 -17 -5 -12 -12 3 -20 2 -16 -3 3 -5 12
-9 20 -9 8 0 14 -5 14 -11 0 -5 -4 -8 -9 -4 -11 6 -6 -34 5 -44 4 -3 4 3 0 14
-6 16 -5 17 5 8 9 -9 9 -15 0 -27 -9 -11 -8 -17 4 -30 9 -9 12 -16 6 -16 -7 0
-7 -8 -1 -24 6 -17 5 -26 -3 -29 -9 -3 -9 -7 -1 -18 6 -8 10 -22 9 -31 -2 -10
1 -20 5 -23 5 -3 7 3 5 15 -2 11 0 22 5 25 5 3 7 -3 5 -14 -2 -11 3 -25 11
-32 13 -10 12 -14 -3 -31 -16 -18 -16 -19 2 -12 13 5 16 4 11 -4 -4 -7 -3 -12
3 -12 6 0 7 -7 4 -17 -5 -12 -3 -14 8 -8 11 7 11 5 -1 -10 -12 -15 -12 -17 -1
-10 11 6 13 3 9 -13 -3 -12 -2 -20 3 -19 5 1 19 -14 31 -32 14 -22 17 -32 8
-26 -12 7 -13 6 -3 -6 6 -8 13 -18 15 -24 1 -5 6 -9 11 -7 4 1 7 -3 7 -10 0
-6 3 -9 6 -6 3 4 0 17 -6 30 -11 22 -11 22 9 -2 19 -23 26 -21 21 5 -1 6 4 5
11 -2 10 -10 9 -16 -2 -30 -12 -16 -11 -16 8 1 13 10 20 23 16 29 -3 6 -1 7 6
3 6 -4 8 -13 4 -19 -4 -7 0 -6 10 2 9 7 17 10 17 6 0 -4 6 -2 14 4 11 9 16 9
22 0 5 -8 3 -9 -6 -4 -9 6 -11 4 -5 -4 5 -9 10 -10 18 -2 7 7 16 7 29 0 10 -5
18 -7 18 -3 0 3 7 1 15 -6 13 -11 14 -10 10 3 -8 18 11 32 21 16 5 -8 3 -9 -6
-4 -9 5 -11 4 -6 -4 6 -9 11 -9 22 0 8 6 14 8 14 4 0 -4 6 -3 13 3 15 12 28 5
46 -23 12 -19 12 -19 8 2 -3 13 -1 26 4 29 5 3 8 2 7 -3 -2 -4 0 -8 3 -8 3 0
13 -6 23 -14 14 -12 16 -12 11 2 -8 18 11 32 21 16 5 -8 3 -9 -6 -4 -9 5 -11
4 -6 -4 6 -9 11 -9 22 0 8 6 14 8 14 4 0 -4 6 -2 14 4 11 9 16 9 22 0 5 -8 3
-9 -6 -4 -9 6 -11 4 -5 -4 5 -9 10 -10 18 -2 7 7 16 7 29 0 10 -5 18 -7 18 -3
0 3 6 1 14 -5 15 -13 28 3 61 74 10 21 27 48 39 58 12 10 16 16 9 13 -6 -4
-14 -2 -18 4 -3 5 1 10 9 10 9 0 16 5 16 11 0 5 -5 7 -12 3 -7 -4 -8 -3 -4 5
6 9 11 9 21 1 10 -8 12 -4 10 20 -2 22 1 30 10 26 7 -2 16 2 19 10 3 8 2 12
-3 9 -5 -3 -13 0 -17 7 -4 7 -4 10 1 6 4 -4 14 0 22 10 8 9 12 12 9 5 -4 -6
-2 -14 3 -17 5 -4 8 5 6 19 -2 21 0 23 12 13 8 -6 13 -7 12 -2 -4 21 2 32 21
37 12 3 18 11 15 19 -4 9 0 15 9 15 8 0 13 -5 10 -11 -3 -6 1 -3 9 6 9 11 17
14 23 8 7 -7 17 -4 30 6 10 8 13 12 5 8 -9 -5 -12 -3 -7 4 4 7 14 12 22 12 8
0 12 -4 9 -10 -3 -6 1 -7 9 -4 9 3 13 11 9 17 -3 6 -1 7 6 3 9 -6 9 -11 1 -21
-8 -10 -4 -12 16 -12 14 0 30 -7 35 -14 7 -11 9 -11 9 -1 0 7 5 10 10 7 6 -4
8 -10 5 -15 -3 -4 5 -6 17 -2 14 3 19 1 14 -6 -8 -14 23 -44 37 -35 7 4 7 0
-1 -9 -11 -14 -10 -18 6 -27 11 -6 21 -8 24 -6 3 3 5 -2 5 -10 0 -8 -5 -12
-11 -8 -6 3 2 -6 19 -20 25 -21 28 -27 16 -41 -11 -14 -11 -16 3 -16 9 0 16
-3 17 -7 0 -5 3 -21 5 -38 2 -16 5 -38 6 -47 1 -9 4 -15 6 -13 2 2 15 -6 28
-17 18 -17 21 -24 12 -35 -9 -11 -6 -15 13 -20 l24 -7 -25 -7 c-23 -6 -23 -7
-3 -8 14 -1 22 -7 22 -18 0 -10 2 -31 4 -48 4 -24 9 -29 26 -28 12 2 20 -1 17
-5 -3 -5 1 -9 9 -9 11 0 12 4 4 13 -7 9 -2 15 18 22 19 7 22 11 10 11 -10 1
-15 6 -12 11 4 6 11 7 17 4 6 -4 5 3 -2 16 -8 16 -9 20 -1 15 8 -4 10 2 7 19
-3 18 -1 23 9 20 7 -3 16 0 21 7 4 7 3 10 -2 6 -5 -3 -10 3 -10 13 0 15 3 17
15 7 12 -10 13 -9 3 10 -10 19 -9 24 7 32 10 6 22 7 26 3 5 -4 5 -2 1 5 -4 7
-14 9 -24 6 -16 -5 -16 -5 0 8 21 17 44 74 25 63 -9 -6 -9 -4 1 8 7 9 12 20
11 24 -3 15 12 44 24 44 5 0 2 -9 -8 -20 -10 -11 -15 -20 -10 -20 19 0 33 35
22 55 -9 18 -9 19 8 5 17 -14 17 -14 7 7 -14 26 -15 36 -3 29 4 -3 16 3 25 13
11 13 14 21 7 26 -6 3 -11 11 -11 16 0 6 6 7 13 3 9 -6 9 -4 -1 8 -15 18 0 34
21 22 6 -4 3 2 -7 14 -11 12 -16 25 -13 29 4 3 7 2 7 -4 0 -15 28 -24 35 -12
4 5 3 9 -2 8 -23 -4 -24 3 -3 21 21 18 21 20 4 20 -11 0 -15 3 -9 8 6 4 10 14
10 22 -1 19 15 41 25 35 5 -3 11 -1 14 4 4 5 1 13 -5 17 -8 5 -9 3 -4 -6 5 -8
4 -11 -3 -7 -5 4 -8 16 -5 28 5 16 8 18 15 7 6 -9 8 -3 6 19 -3 18 -1 30 4 27
4 -3 8 0 8 6 0 6 5 8 13 4 9 -6 9 -5 0 7 -11 13 -9 20 10 37 13 12 27 19 32
15 4 -5 5 1 1 11 -5 16 -4 17 8 7 12 -10 13 -8 9 10 -5 18 -3 20 15 15 12 -4
23 -2 28 5 4 7 3 9 -4 5 -6 -3 -13 -3 -16 2 -2 4 10 9 27 10 24 2 28 0 17 -8
-8 -5 -10 -10 -4 -10 16 0 23 10 17 26 -3 8 -10 11 -16 7 -6 -3 -7 -1 -3 6 6
9 11 9 22 0 11 -9 18 -8 31 2 11 10 14 10 9 2 -4 -7 -3 -13 1 -13 5 0 15 6 22
13 11 10 12 9 6 -1 -5 -10 -1 -13 16 -10 19 2 25 -2 27 -20 3 -22 4 -23 17 -5
13 17 14 17 20 1 4 -10 11 -16 15 -13 5 3 7 -6 6 -19 -2 -14 0 -25 3 -24 31 3
43 -4 38 -23 -5 -17 -3 -18 11 -7 9 7 14 8 9 3 -4 -4 0 -19 9 -33 8 -13 13
-30 10 -38 -3 -8 -2 -12 3 -9 5 3 13 0 17 -6 3 -6 0 -15 -7 -20 -12 -7 -11 -9
1 -10 8 -1 19 -1 23 0 5 1 6 -3 2 -9 -3 -5 -1 -10 6 -10 7 0 9 -3 6 -6 -4 -4
-13 -1 -21 5 -10 8 -16 9 -21 1 -4 -6 -1 -9 6 -8 7 2 13 -3 14 -10 0 -8 9 -20
19 -28 11 -8 14 -14 8 -14 -9 0 -7 -8 4 -25 9 -14 13 -25 8 -25 -5 0 2 -7 14
-16 19 -13 21 -18 10 -32 -8 -10 -9 -13 -1 -9 6 4 14 3 18 -3 3 -5 1 -10 -5
-10 -6 0 -8 -5 -5 -10 4 -6 12 -7 18 -3 8 4 7 1 -1 -9 -10 -13 -10 -18 -1 -24
8 -5 9 -3 4 6 -5 8 -4 11 3 6 6 -4 9 -13 5 -21 -3 -9 1 -15 8 -15 12 0 12 -2
0 -9 -11 -7 -11 -12 0 -32 7 -13 13 -26 14 -29 0 -3 11 -21 23 -40 13 -19 21
-27 19 -18 -3 9 0 19 8 22 10 3 12 0 9 -12 -5 -15 -4 -15 6 1 6 9 9 21 6 25
-3 4 5 14 17 22 21 12 21 12 7 -6 -14 -18 -14 -18 3 -5 10 8 16 20 13 27 -3 8
2 11 14 9 11 -2 23 1 26 7 5 7 2 8 -7 3 -8 -5 -3 4 10 18 14 15 27 25 29 22 3
-3 11 3 19 13 14 16 14 16 8 -2 -6 -20 -6 -20 16 0 14 12 19 13 14 4 -6 -12
-5 -13 6 -2 7 6 17 12 22 12 4 0 5 -6 1 -12 -6 -10 -4 -10 7 0 7 6 17 12 22
12 4 0 5 -6 1 -12 -5 -9 -2 -9 9 1 9 7 17 10 17 5 0 -5 11 -10 25 -10 16 -1
23 2 18 10 -3 6 3 2 15 -8 16 -13 19 -23 12 -31 -8 -9 -4 -11 15 -7 16 3 25 0
25 -8 0 -7 7 -10 15 -7 8 4 17 1 21 -5 4 -6 3 -8 -3 -5 -6 4 -13 0 -17 -8 -3
-8 -2 -14 2 -12 14 4 68 -59 63 -74 -4 -12 -2 -12 12 -1 14 12 17 10 23 -12 3
-14 10 -23 15 -20 5 3 9 -2 9 -11 0 -11 5 -15 14 -12 10 4 12 -1 9 -16 -4 -18
-3 -20 7 -7 10 12 11 11 7 -8 -3 -12 -1 -20 3 -17 11 7 51 -35 44 -46 -2 -4 1
-11 7 -15 8 -4 9 -3 5 4 -4 7 -3 12 3 12 5 0 12 -6 14 -12 4 -10 6 -9 6 1 1
11 4 11 16 1 12 -10 15 -10 15 1 0 11 3 11 11 -1 8 -12 12 -12 16 -2 4 10 8
10 19 1 11 -9 14 -8 14 2 0 11 2 11 10 -1 9 -13 10 -13 10 0 0 13 1 13 10 0 8
-12 10 -12 10 -1 0 10 3 11 14 2 11 -9 16 -9 22 0 4 8 3 9 -4 5 -7 -4 -12 -2
-12 3 0 6 8 11 18 12 9 0 12 3 5 5 -7 3 -9 12 -6 20 3 7 9 11 15 8 5 -3 8 2 6
12 -2 13 3 19 14 18 14 -1 16 2 7 18 -9 16 -8 19 2 13 9 -6 11 -3 6 9 -5 11
-3 15 5 10 8 -5 9 -2 4 11 -5 15 -4 16 9 5 9 -7 18 -10 22 -6 3 3 1 6 -7 6
-10 0 -10 3 0 15 6 8 8 20 4 26 -5 9 -2 10 9 6 9 -3 19 -2 22 4 4 5 1 8 -6 7
-6 -2 -14 3 -17 11 -3 8 0 11 7 7 6 -4 11 -2 11 4 0 6 6 8 13 4 10 -6 10 -4 0
7 -7 7 -13 17 -13 22 0 4 6 5 13 1 9 -6 9 -4 -1 8 -9 12 -10 18 -2 23 6 4 9
14 6 22 -4 9 -2 11 6 7 8 -5 9 -2 4 11 -5 15 -4 16 9 5 13 -11 14 -10 9 5 -6
14 -4 16 7 10 11 -7 12 -6 2 6 -9 12 -10 18 -1 27 8 8 8 16 -3 28 -9 12 -10
15 -1 10 7 -4 12 -1 12 8 0 8 6 14 13 12 6 -1 9 -1 4 2 -4 2 -12 13 -18 24 -7
13 -7 18 -1 14 6 -3 13 3 17 14 4 11 11 17 17 14 7 -4 8 -2 4 5 -6 9 -11 9
-21 1 -10 -8 -15 -8 -21 1 -4 8 -3 9 4 5 8 -5 11 2 8 22 -3 26 0 29 18 24 19
-5 19 -3 -4 17 -16 14 -19 21 -8 18 23 -8 29 2 14 27 -13 22 -13 46 -1 81 6
16 5 17 -4 5 -9 -12 -11 -8 -7 18 2 18 0 30 -5 26 -5 -3 -7 -9 -4 -14 3 -5 1
-11 -4 -14 -5 -4 -7 7 -4 25 2 17 1 29 -5 26 -5 -4 -9 0 -9 8 0 8 5 15 11 15
5 0 1 7 -10 16 -10 8 -14 13 -8 10 7 -3 14 4 17 16 4 16 3 18 -6 9 -20 -20
-31 -12 -12 9 16 17 16 20 3 15 -13 -5 -16 -1 -14 19 4 29 -17 52 -36 40 -9
-5 -8 -2 2 10 13 16 11 21 -16 45 -19 16 -30 34 -29 48 1 12 -2 20 -7 17 -4
-3 -5 -10 -2 -16 4 -7 2 -8 -4 -4 -6 4 -8 14 -5 23 4 9 2 14 -3 11 -5 -3 -17
3 -26 14 -20 20 -10 25 12 6 7 -7 4 1 -8 18 -12 17 -18 34 -15 38 4 4 -1 4
-10 0 -22 -8 -57 21 -57 48 0 10 -3 17 -7 17 -19 -3 -33 2 -33 12 0 15 -26 39
-34 31 -4 -3 -4 1 0 11 3 10 1 17 -5 17 -6 0 -11 -5 -11 -10 0 -6 -6 -5 -14 2
-8 7 -11 17 -8 22 3 5 -2 7 -11 3 -12 -4 -17 -1 -17 10 0 13 -2 14 -17 2 -9
-8 -14 -9 -10 -3 3 6 -5 21 -19 33 l-26 22 7 -22 c5 -14 4 -19 -4 -15 -6 4
-11 15 -11 24 0 13 -2 13 -14 -3 -13 -18 -14 -18 -24 2 -6 11 -8 24 -4 28 4 5
2 5 -4 2 -6 -3 -23 0 -38 8 -14 8 -24 10 -21 5 4 -6 -1 -10 -10 -10 -10 0 -13
5 -9 13 5 8 2 8 -9 -2 -14 -11 -17 -11 -17 0 0 11 -2 11 -10 -1 -7 -12 -10
-12 -10 -1 0 7 -6 11 -15 7 -9 -3 -15 0 -15 10 0 14 -2 14 -16 0 -19 -19 -25
-20 -21 -3 1 7 -7 12 -20 11 -12 0 -20 3 -18 7 3 4 -2 10 -11 13 -8 3 -12 2
-9 -4 7 -11 -8 -14 -19 -3 -10 10 -46 11 -40 1 8 -12 -10 -10 -23 3 -8 8 -13
7 -18 -2 -5 -8 -4 -10 3 -5 7 4 12 2 12 -4 0 -7 -8 -9 -22 -5 -13 4 -27 8 -33
9 -5 0 -14 6 -18 11 -4 6 -7 1 -5 -11z m138 -4 c0 -5 -5 -10 -11 -10 -5 0 -7
5 -4 10 3 6 8 10 11 10 2 0 4 -4 4 -10z m-1807 -25 c-3 -9 -8 -14 -10 -11 -3
3 -2 9 2 15 9 16 15 13 8 -4z m392 -25 c3 -6 -1 -7 -9 -4 -18 7 -21 14 -7 14
6 0 13 -4 16 -10z m1661 -3 c8 3 14 1 14 -5 0 -14 -33 -8 -36 7 -1 6 0 7 2 2
3 -6 12 -7 20 -4z m458 -395 c3 -5 -1 -9 -9 -9 -8 0 -12 4 -9 9 3 4 7 8 9 8 2
0 6 -4 9 -8z m-3217 -399 c-9 -2 -14 -9 -11 -15 4 -7 2 -8 -5 -4 -15 10 -4 26
17 25 15 -1 15 -2 -1 -6z m2173 -59 c0 -8 -19 -13 -24 -6 -3 5 1 9 9 9 8 0 15
-2 15 -3z m-575 -174 c-3 -5 -11 -10 -16 -10 -6 0 -7 5 -4 10 3 6 11 10 16 10
6 0 7 -4 4 -10z m673 -106 c-4 -3 -12 5 -18 18 -12 22 -12 22 6 6 10 -10 15
-20 12 -24z m16 -30 c9 -24 2 -26 -12 -4 -7 11 -8 20 -3 20 5 0 12 -7 15 -16z
m-977 -99 c0 -8 -4 -12 -9 -9 -5 3 -6 10 -3 15 9 13 12 11 12 -6z m-619 -45
c-7 -10 -14 -17 -17 -15 -4 4 18 35 25 35 2 0 -1 -9 -8 -20z m697 -140 c-3 -5
-11 -10 -16 -10 -6 0 -7 5 -4 10 3 6 11 10 16 10 6 0 7 -4 4 -10z"/>
<path d="M3095 3930 c4 -6 11 -8 16 -5 14 9 11 15 -7 15 -8 0 -12 -5 -9 -10z"/>
<path d="M2095 3921 c-3 -5 -1 -12 5 -16 5 -3 10 1 10 9 0 18 -6 21 -15 7z"/>
<path d="M3010 3925 c0 -5 5 -17 10 -25 5 -8 10 -10 10 -5 0 6 -5 17 -10 25
-5 8 -10 11 -10 5z"/>
<path d="M3980 3746 c0 -2 7 -9 15 -16 9 -7 15 -8 15 -2 0 5 -7 12 -15 16 -8
3 -15 4 -15 2z"/>
<path d="M4107 3579 c7 -7 15 -10 18 -7 3 3 -2 9 -12 12 -14 6 -15 5 -6 -5z"/>
<path d="M2640 3245 c-9 -10 -9 -15 -1 -15 6 0 11 5 11 11 0 5 5 7 12 3 7 -4
8 -3 4 4 -9 15 -11 15 -26 -3z"/>
<path d="M2802 3251 c2 -19 -4 -24 -12 -11 -8 12 -11 11 -16 -8 -4 -14 -12
-21 -20 -18 -9 3 -16 -4 -20 -19 -3 -14 -10 -25 -14 -25 -5 0 -10 -12 -12 -27
-2 -17 -8 -27 -16 -25 -10 2 -10 -2 -3 -17 8 -14 7 -22 -3 -30 -7 -6 -16 -8
-20 -4 -4 4 -4 0 0 -10 3 -9 11 -14 17 -10 6 4 7 1 3 -6 -5 -7 -13 -10 -20 -8
-7 3 -13 -7 -14 -26 -2 -18 -10 -35 -18 -40 -10 -6 -12 -12 -5 -21 13 -16 -3
-41 -20 -31 -8 5 -11 5 -7 0 4 -4 2 -15 -5 -23 -9 -13 -9 -14 1 -8 6 4 12 2
12 -3 0 -6 -5 -11 -11 -11 -8 0 -7 -6 2 -17 10 -12 10 -14 1 -9 -7 4 -15 1
-18 -8 -3 -9 -11 -13 -17 -9 -6 3 -7 1 -3 -6 6 -9 12 -9 24 1 15 12 16 11 4
-4 -8 -10 -10 -23 -6 -30 6 -10 3 -9 -9 1 -18 14 -22 7 -18 -26 1 -7 -3 -13
-8 -13 -7 0 -7 -8 -1 -25 5 -14 6 -24 2 -24 -22 4 -31 -3 -25 -18 5 -12 3 -14
-8 -8 -12 8 -12 6 0 -8 11 -14 11 -18 -3 -23 -9 -3 -16 -10 -16 -16 0 -5 6 -6
13 -2 8 6 8 3 -1 -9 -8 -9 -11 -20 -8 -25 3 -5 -1 -9 -9 -9 -8 0 -11 5 -8 10
3 6 1 7 -5 3 -6 -4 -8 -14 -5 -23 5 -12 3 -14 -8 -9 -8 4 -5 0 5 -8 12 -10 15
-16 7 -16 -8 0 -11 -6 -7 -16 5 -14 4 -15 -8 -5 -11 9 -16 9 -22 0 -4 -7 -3
-9 4 -5 6 4 10 -1 9 -13 -1 -14 -5 -17 -12 -11 -8 7 -12 5 -12 -5 0 -8 5 -15
11 -15 6 0 5 -5 -2 -12 -16 -16 -15 -31 1 -23 6 3 2 -2 -10 -11 -13 -9 -23
-25 -23 -35 0 -10 -5 -21 -11 -25 -6 -3 -8 -17 -4 -31 3 -14 2 -22 -3 -19 -10
6 -29 -12 -31 -26 -1 -5 -2 -11 -2 -15 -4 -28 -3 -39 6 -46 6 -5 0 -7 -12 -4
-13 3 -26 1 -29 -4 -3 -5 -10 -9 -15 -9 -6 0 -7 5 -4 10 6 9 -8 14 -28 11 -5
-1 -6 3 -2 9 3 6 12 7 18 4 7 -4 -1 6 -16 23 -19 21 -25 35 -21 48 6 14 4 16
-6 10 -9 -6 -11 -4 -5 5 5 8 1 18 -10 27 -18 13 -18 13 1 13 18 1 18 1 1 11
-10 6 -14 15 -10 22 4 7 -2 5 -12 -3 -17 -14 -18 -14 -6 8 10 19 9 22 -6 22
-15 0 -16 2 -3 10 12 7 12 10 1 10 -7 0 -11 6 -7 15 3 8 -1 18 -8 22 -7 5 -21
21 -32 38 -17 26 -17 28 -2 23 12 -5 15 -3 12 7 -3 8 -12 11 -19 9 -9 -4 -13
2 -11 20 3 22 1 24 -11 14 -11 -9 -13 -8 -11 3 2 8 8 17 13 21 6 5 3 8 -7 8
-9 0 -20 5 -24 12 -4 6 -3 8 2 5 5 -3 10 3 10 13 0 15 -3 17 -15 7 -12 -9 -13
-9 -7 1 4 7 2 12 -6 12 -9 0 -9 3 2 10 10 6 11 10 3 10 -7 0 -13 9 -13 20 0
11 5 20 12 20 6 0 8 3 5 6 -4 4 -14 1 -23 -7 -14 -11 -16 -10 -13 6 3 25 -10
56 -21 50 -5 -3 -12 0 -16 6 -4 8 -3 9 4 5 16 -10 15 17 0 32 -7 7 -16 12 -22
12 -5 0 -1 -7 10 -16 18 -15 18 -15 -3 -4 -14 6 -20 16 -16 26 3 9 0 14 -8 12
-8 -2 -13 4 -11 12 3 12 1 13 -9 3 -7 -7 -17 -13 -22 -13 -4 0 -5 6 -1 13 5 7
1 7 -10 -2 -15 -13 -19 -13 -28 0 -7 11 -9 9 -5 -8 3 -13 0 -26 -5 -30 -7 -3
-8 -1 -4 5 4 7 2 12 -3 12 -6 0 -11 -7 -11 -16 0 -14 -3 -14 -15 -4 -13 11
-14 10 -9 -4 4 -10 1 -16 -7 -16 -11 0 -11 -3 1 -10 8 -5 10 -10 4 -10 -11 0
-27 -35 -25 -52 0 -4 -5 -5 -13 -2 -9 4 -13 -2 -11 -20 2 -15 -1 -24 -6 -20
-5 3 -6 10 -3 16 4 7 2 8 -4 4 -6 -4 -9 -13 -5 -22 3 -9 0 -14 -7 -12 -7 2
-15 -3 -18 -11 -2 -8 0 -11 6 -7 6 4 6 -3 -1 -18 -8 -16 -14 -21 -19 -13 -5 7
-8 1 -8 -15 0 -15 -5 -30 -10 -33 -6 -4 -7 -11 -4 -17 5 -7 2 -8 -6 -3 -10 6
-12 4 -7 -8 3 -8 0 -18 -8 -21 -10 -3 -12 0 -9 12 5 14 4 15 -4 2 -7 -9 -8
-18 -1 -26 18 -21 -22 -36 -44 -16 -17 15 -17 15 -11 -4 7 -16 5 -17 -8 -7 -8
7 -18 9 -22 5 -4 -4 -13 -7 -19 -7 -7 -1 -11 -7 -9 -15 2 -8 0 -11 -4 -7 -12
12 -14 38 -2 31 7 -4 8 -2 4 5 -5 8 -12 9 -19 2 -7 -5 -21 -11 -32 -13 -11 -1
-23 -7 -26 -11 -3 -5 -9 -1 -12 8 -5 10 -3 14 5 9 7 -4 8 -3 4 4 -5 9 -15 7
-34 -5 -26 -17 -27 -17 -12 1 14 18 14 19 -7 7 -13 -6 -23 -17 -23 -22 0 -6
-9 -1 -21 12 -11 13 -18 19 -15 13 3 -7 -1 -15 -10 -18 -9 -4 -13 -2 -8 5 4 8
-1 9 -15 4 -12 -4 -27 -2 -34 3 -14 12 -57 -2 -57 -19 0 -6 -9 -1 -21 12 -11
13 -18 19 -15 13 3 -7 -1 -15 -10 -18 -9 -4 -13 -2 -8 5 4 8 -1 9 -15 4 -13
-4 -29 -1 -38 7 -9 7 -14 8 -10 2 4 -7 0 -15 -9 -18 -8 -3 -12 -2 -9 4 3 6 1
10 -5 10 -6 0 -13 -7 -16 -15 -5 -12 -10 -10 -26 8 -11 12 -17 17 -14 11 3 -7
-1 -15 -10 -18 -9 -4 -13 -2 -8 5 4 8 -1 9 -15 4 -12 -4 -28 -2 -36 5 -10 8
-15 8 -21 -1 -4 -7 -3 -9 3 -6 5 3 10 0 10 -7 0 -11 -4 -12 -18 -3 -10 6 -15
15 -12 21 3 5 1 6 -5 2 -7 -4 -12 -13 -12 -21 0 -8 -5 -17 -12 -21 -7 -4 -8
-3 -4 4 4 7 3 12 -3 12 -6 0 -13 -11 -17 -25 -3 -14 -11 -22 -17 -18 -6 3 -7
1 -3 -6 6 -9 11 -9 24 1 12 10 14 10 8 1 -4 -7 -1 -22 7 -33 13 -18 15 -19 21
-5 3 9 2 14 -2 11 -5 -3 -9 1 -9 9 0 11 4 12 14 4 7 -6 11 -15 8 -19 -3 -5 0
-12 6 -16 8 -4 9 -3 5 4 -4 7 -1 12 9 12 10 0 13 5 9 13 -6 9 -5 9 7 0 12 -10
18 -10 28 0 11 10 11 7 1 -13 -12 -24 -12 -24 6 -9 18 16 54 22 54 9 0 -3 9
-6 20 -7 13 -1 18 2 14 9 -4 7 -2 8 5 4 6 -4 19 -2 27 5 12 10 13 9 9 -3 -3
-8 2 -21 12 -29 16 -13 17 -12 4 4 -9 12 -10 17 -2 17 7 0 9 5 5 12 -4 7 -3 8
5 4 6 -4 9 -11 7 -15 -3 -4 1 -8 9 -8 8 0 12 4 9 9 -3 4 0 8 5 8 6 0 12 -10
12 -22 1 -21 2 -21 6 -3 3 11 9 25 15 30 6 6 7 4 2 -8 -5 -13 -2 -16 10 -11 9
3 13 11 9 18 -3 6 -1 6 8 -1 16 -16 43 -17 34 -2 -4 6 2 5 13 -2 12 -7 18 -18
15 -24 -4 -5 2 -3 13 6 18 16 54 22 54 9 0 -3 9 -6 20 -7 13 -1 18 2 14 9 -4
7 -2 8 5 4 6 -4 19 -2 27 5 12 10 13 9 9 -3 -3 -8 2 -21 12 -29 16 -13 17 -12
4 4 -9 12 -10 17 -2 17 7 0 9 5 5 12 -4 7 -3 8 5 4 6 -4 8 -13 4 -19 -4 -7 0
-6 10 2 9 7 17 10 17 6 0 -4 6 -3 13 3 15 12 57 -2 57 -20 0 -11 2 -11 8 0 5
7 19 14 31 17 17 3 21 0 17 -11 -4 -10 -2 -13 7 -7 6 4 19 8 27 8 8 0 14 8 13
19 -1 13 2 15 10 7 7 -7 14 -5 24 7 12 16 13 16 6 -2 -6 -19 -6 -19 13 0 11
10 16 22 11 25 -5 4 0 12 12 18 18 10 20 15 10 34 -7 12 -8 19 -4 15 4 -4 16
-3 27 3 16 9 17 13 6 27 -11 13 -11 14 0 8 9 -6 12 -3 10 10 -2 11 3 19 12 19
9 0 14 8 12 19 -2 12 1 16 9 10 9 -5 10 -2 6 10 -5 13 -1 19 13 23 17 5 18 8
8 21 -11 13 -10 15 6 9 17 -7 17 -6 5 10 -12 14 -12 16 0 8 11 -6 13 -4 8 8
-7 19 17 42 34 32 8 -6 8 -2 0 13 -9 17 -8 20 6 18 9 -2 20 -13 25 -25 6 -16
5 -20 -5 -15 -9 6 -9 5 0 -7 6 -8 13 -18 15 -24 1 -5 6 -9 10 -8 4 2 4 -5 1
-14 -4 -10 -2 -14 5 -9 6 3 14 1 18 -5 4 -8 3 -9 -4 -5 -16 10 -15 -7 1 -23
10 -11 9 -12 -3 -6 -12 7 -13 6 -3 -6 6 -8 11 -18 11 -22 0 -5 4 -12 8 -15 4
-4 4 -1 0 6 -4 6 -2 12 5 12 7 0 9 -10 7 -25 -4 -16 -1 -25 8 -25 18 0 27 -17
13 -26 -8 -5 -9 -3 -4 6 5 9 4 11 -4 6 -9 -6 -9 -11 0 -22 14 -17 23 -19 13
-2 -4 7 -3 8 5 4 9 -6 9 -11 -1 -24 -7 -9 -8 -13 -3 -10 6 3 16 0 23 -8 7 -8
8 -14 2 -14 -5 0 -2 -9 8 -20 9 -12 17 -24 17 -28 0 -4 4 -13 8 -19 5 -7 6
-13 3 -13 -3 0 2 -9 12 -20 17 -20 18 -24 21 -56 1 -9 6 -12 14 -8 9 6 9 4 -1
-8 -10 -13 -10 -18 -1 -24 8 -4 9 -3 5 4 -4 7 -5 12 -2 12 3 0 10 -10 17 -21
8 -15 8 -19 0 -15 -6 4 -11 2 -11 -5 0 -7 8 -9 21 -6 17 5 18 3 8 -9 -10 -12
-9 -17 1 -27 10 -10 11 -9 5 2 -5 9 -4 12 3 7 9 -5 9 -13 2 -26 -7 -13 -7 -21
2 -26 7 -4 8 -3 4 4 -4 7 -2 12 3 12 6 0 11 -9 11 -20 0 -11 6 -20 13 -20 9 0
9 -2 -1 -8 -8 -6 -1 -13 23 -22 19 -8 35 -18 35 -23 0 -5 -11 -2 -25 7 -14 9
-25 12 -25 6 0 -5 4 -10 9 -10 5 0 17 -7 25 -16 9 -9 16 -11 16 -4 0 6 5 8 13
3 18 -11 38 -13 31 -2 -8 13 10 11 25 -4 10 -10 11 -8 5 6 -3 10 -3 17 2 15 5
-2 11 2 13 7 2 6 11 15 19 21 18 13 28 59 10 48 -7 -5 -8 -3 -4 5 5 7 15 10
23 6 13 -4 14 -3 3 10 -7 8 -8 15 -3 15 5 0 10 9 11 20 1 11 2 28 3 37 1 10
12 26 23 36 12 10 16 16 10 13 -6 -3 -11 1 -11 9 0 8 4 12 9 9 4 -3 8 2 8 11
0 9 5 13 10 10 6 -3 10 1 10 9 0 9 5 16 12 16 6 0 8 3 5 6 -4 4 -13 1 -22 -6
-19 -16 -20 -3 -1 15 7 8 17 11 20 7 4 -3 4 1 0 11 -4 11 -1 17 7 18 8 0 5 4
-6 9 -17 8 -18 9 -2 11 32 3 35 4 43 11 3 4 -4 5 -17 3 -23 -4 -23 -4 -5 10
11 8 16 15 10 15 -5 0 -2 5 6 10 12 8 12 10 -5 11 -19 0 -18 1 3 11 26 13 30
30 5 22 -10 -3 -7 2 7 10 14 8 21 16 15 16 -5 0 -4 4 4 9 18 11 25 44 8 34 -7
-4 -6 0 1 10 8 9 10 22 6 28 -5 8 -3 9 6 4 10 -6 12 -4 7 9 -5 12 0 19 16 26
12 5 16 9 8 9 -10 1 -11 4 -2 15 9 11 9 15 -1 19 -10 4 -10 6 1 6 21 1 41 34
30 48 -7 7 -6 14 2 19 8 5 9 3 4 -6 -5 -9 -4 -11 4 -6 9 6 9 11 1 21 -8 10 -8
15 0 20 6 4 9 14 5 22 -5 14 -3 14 11 2 16 -13 16 -12 6 8 -9 17 -9 22 3 26
10 4 12 1 9 -11 -5 -14 -4 -15 5 -2 6 9 7 18 1 24 -6 6 -3 15 8 23 9 8 12 12
5 9 -6 -4 -14 -2 -18 4 -3 5 0 10 8 10 8 0 18 7 21 16 5 12 3 14 -7 8 -7 -5
-5 -2 5 7 9 9 14 19 11 23 -4 3 -1 6 7 6 10 0 10 4 -1 17 -10 11 -10 14 -1 9
7 -4 12 -1 12 9 0 10 -5 13 -12 9 -7 -4 -8 -3 -4 5 4 6 12 8 18 5 7 -5 9 -2 5
8 -4 11 1 18 15 22 18 4 19 7 8 20 -7 10 -8 16 -2 16 6 0 12 6 14 14 3 12 6
12 23 -1 15 -12 16 -14 3 -10 -12 4 -15 2 -11 -8 3 -8 8 -13 12 -10 10 6 7
-47 -4 -65 -7 -12 -6 -13 6 -3 9 8 20 9 29 3 13 -9 13 -10 0 -10 -13 0 -13 -2
-1 -9 18 -12 23 -41 8 -41 -7 0 -6 -4 3 -9 8 -6 18 -7 22 -5 4 3 5 -2 2 -10
-3 -9 -12 -12 -22 -9 -9 4 -15 4 -12 2 3 -2 16 -13 30 -24 25 -20 25 -20 10 0
-14 19 -14 19 3 6 12 -10 14 -17 7 -26 -8 -9 -6 -14 5 -19 8 -3 15 -11 15 -18
0 -10 -2 -10 -9 0 -7 11 -9 10 -14 -3 -4 -9 -3 -13 3 -10 6 3 10 1 10 -5 0 -6
5 -8 11 -4 7 4 10 1 7 -7 -3 -8 2 -20 11 -27 9 -8 11 -11 6 -8 -6 2 -11 -6
-11 -19 0 -13 4 -21 8 -19 5 3 11 -2 14 -11 6 -13 8 -14 15 -3 6 9 9 9 9 1 0
-6 -7 -18 -15 -26 -13 -13 -13 -16 1 -21 10 -4 13 -2 8 7 -4 7 -3 8 2 4 5 -5
9 -21 9 -35 0 -18 5 -27 16 -26 9 1 16 -5 16 -12 0 -7 -4 -11 -9 -8 -15 10 -8
-6 13 -27 20 -20 20 -21 2 -34 -17 -13 -17 -14 5 -10 22 4 30 -9 12 -20 -5 -3
-10 -12 -10 -18 0 -8 3 -7 9 2 12 19 30 5 24 -19 -4 -16 -2 -19 13 -14 16 6
17 5 7 -7 -15 -16 -17 -33 -3 -24 6 3 10 1 10 -5 0 -7 6 -10 14 -7 10 4 12 0
8 -16 -5 -21 -5 -21 12 -4 19 18 31 23 22 8 -9 -14 16 -19 41 -8 17 7 20 13
12 23 -7 8 -6 14 2 20 7 4 9 3 5 -4 -4 -7 2 -10 15 -9 14 1 25 12 32 30 7 21
12 25 18 15 7 -10 9 -8 10 7 1 11 1 24 0 28 -1 5 3 6 9 2 6 -3 8 -12 4 -18 -3
-7 3 -1 14 12 10 13 30 33 43 43 13 11 19 17 12 14 -6 -4 -15 -2 -18 4 -4 6
-3 10 2 9 21 -4 34 2 27 13 -5 8 -2 9 10 5 14 -6 17 -3 12 9 -4 11 -2 15 8 11
10 -4 14 0 11 14 -3 17 -1 19 10 9 11 -9 12 -7 8 11 -6 21 -6 21 16 3 22 -19
28 -30 11 -19 -5 3 -7 0 -4 -9 3 -8 12 -12 20 -9 8 3 14 2 13 -3 -4 -21 2 -34
14 -31 7 1 11 -6 9 -17 -2 -10 0 -16 5 -13 4 2 17 -7 28 -21 11 -14 35 -40 52
-57 26 -25 30 -34 20 -44 -9 -10 -8 -11 7 -5 15 6 17 4 11 -7 -7 -11 -5 -11
10 1 11 9 16 10 11 3 -4 -8 -2 -13 5 -13 8 0 8 -5 -2 -17 -7 -10 -10 -15 -5
-11 4 3 19 0 33 -7 15 -8 31 -11 36 -8 6 3 7 1 3 -6 -4 -6 -11 -9 -16 -6 -5 3
-12 0 -16 -6 -4 -7 -3 -9 3 -6 6 4 23 -3 39 -15 15 -13 25 -17 21 -11 -5 8 0
11 13 10 11 -1 20 -6 20 -12 0 -5 5 -3 10 5 7 11 10 11 10 2 0 -8 5 -10 12 -6
18 11 48 12 54 2 3 -4 14 -3 26 3 16 8 19 8 13 -1 -6 -9 -2 -9 14 -1 16 9 21
9 21 -1 0 -9 3 -9 10 2 7 11 10 11 10 2 0 -9 5 -10 18 -3 11 6 24 6 35 0 12
-7 17 -6 17 3 0 9 3 9 10 -2 9 -13 11 -13 20 0 9 13 10 13 10 0 0 -13 1 -13
10 0 5 8 10 11 10 6 0 -5 7 -3 15 4 13 11 15 10 9 -6 -5 -18 -5 -18 6 0 10 15
14 16 21 5 6 -9 9 -10 9 -2 0 6 -5 15 -10 18 -6 4 -8 11 -4 16 3 6 12 5 22 -3
15 -12 16 -11 3 5 -8 9 -16 15 -19 13 -2 -3 -12 5 -22 17 -14 17 -20 19 -33 9
-11 -10 -17 -9 -26 1 -6 8 -7 18 -3 23 4 4 -1 2 -10 -5 -9 -7 -22 -10 -28 -6
-5 3 -10 -2 -10 -12 0 -15 -2 -15 -9 -4 -8 13 -12 13 -27 0 -10 -8 -15 -9 -11
-3 4 7 1 14 -7 17 -8 3 -17 -1 -20 -10 -5 -12 -9 -13 -20 -4 -7 6 -21 9 -30 5
-11 -4 -15 -2 -13 7 2 8 2 11 0 6 -3 -4 -9 -5 -13 -2 -5 3 -12 0 -16 -6 -5 -8
-3 -9 6 -4 9 5 11 4 6 -4 -4 -6 -12 -9 -17 -5 -5 3 -7 9 -4 14 3 5 0 12 -6 16
-8 5 -9 3 -4 -6 6 -10 4 -12 -9 -7 -14 6 -17 3 -12 -8 4 -11 2 -14 -7 -8 -6 4
-15 8 -19 8 -3 0 -10 4 -15 9 -5 5 -3 6 5 2 6 -4 12 -2 12 3 0 6 -9 11 -20 11
-18 0 -25 11 -21 34 1 5 -4 4 -13 -3 -11 -9 -16 -9 -22 0 -4 8 -3 9 4 5 7 -4
12 -2 12 3 0 6 -5 11 -11 11 -5 0 -8 4 -4 9 3 5 0 13 -6 17 -8 4 -9 3 -5 -4 4
-7 2 -12 -5 -12 -7 0 -9 8 -6 21 5 17 3 18 -11 7 -9 -7 -14 -9 -10 -4 4 4 -4
19 -18 33 -13 13 -21 29 -18 35 5 7 2 8 -6 3 -10 -6 -12 -4 -6 10 5 14 4 16
-7 7 -17 -15 -30 -3 -16 14 8 10 5 11 -13 7 -18 -4 -20 -3 -8 6 13 9 13 11 -1
11 -9 0 -23 8 -30 18 -13 16 -13 16 6 2 19 -14 20 -14 2 6 -9 11 -14 24 -10
28 4 4 -1 4 -12 0 -14 -6 -17 -4 -12 9 4 12 2 14 -10 10 -10 -4 -14 -2 -10 4
3 5 0 10 -8 10 -8 0 -12 -4 -9 -9 3 -4 0 -8 -5 -8 -6 0 -12 5 -12 10 -1 6 -3
15 -4 20 -1 6 -3 13 -4 17 0 4 -6 2 -12 -4 -6 -6 -19 -9 -28 -6 -14 4 -14 3
-1 -6 13 -9 12 -11 -5 -12 -11 -1 -25 -2 -32 -2 -6 0 -9 -6 -6 -13 3 -10 0
-12 -10 -8 -8 3 -18 0 -23 -7 -5 -8 -3 -10 7 -5 8 4 5 1 -5 -8 -10 -8 -23 -13
-29 -9 -6 3 -7 1 -3 -5 3 -6 -1 -17 -9 -25 -18 -19 -20 -31 -2 -21 7 4 9 3 4
-2 -9 -9 -13 -10 -44 -13 -16 -1 -16 -3 -3 -11 9 -6 10 -10 3 -10 -7 0 -18
-12 -25 -27 -8 -16 -21 -27 -31 -27 -14 2 -15 -1 -6 -12 10 -12 9 -13 -5 -8
-10 4 -19 0 -23 -12 -5 -11 -14 -20 -21 -22 -8 -1 -11 2 -6 9 3 6 0 15 -7 20
-12 7 -12 9 0 9 11 0 10 4 -5 16 -15 13 -16 15 -2 10 12 -3 15 -1 11 9 -3 8
-9 12 -14 9 -5 -3 -9 2 -9 10 0 9 -8 16 -17 17 -11 0 -13 3 -5 6 6 2 12 9 12
14 0 6 -6 7 -12 3 -10 -6 -10 -5 -1 8 11 12 10 18 -5 32 -10 9 -22 13 -27 9
-4 -5 -5 -3 -1 4 4 7 12 11 19 9 7 -1 9 -1 4 1 -4 3 -5 8 -2 13 3 4 -5 6 -17
3 -13 -3 -19 -1 -13 4 14 11 12 39 -3 36 -6 -2 -9 4 -6 12 4 8 9 13 13 10 4
-2 8 2 8 10 0 10 -6 10 -26 -3 -24 -15 -25 -15 -13 0 10 13 10 19 -3 32 -9 9
-12 16 -6 16 6 0 11 5 11 11 0 5 -4 8 -9 5 -5 -3 -12 1 -15 10 -3 8 -2 12 3 9
5 -3 13 0 17 6 4 7 3 9 -4 5 -6 -3 -19 6 -30 22 -16 21 -18 32 -10 46 8 14 8
17 -2 11 -10 -6 -11 -1 -6 21 7 28 7 28 -8 9 -12 -16 -17 -18 -28 -7 -11 11
-10 12 3 7 10 -4 16 0 16 9 0 8 -7 18 -16 21 -13 5 -14 7 -1 15 10 7 11 10 3
10 -7 0 -13 7 -13 16 0 9 -8 23 -17 31 -10 8 -12 12 -6 8 9 -4 11 -1 7 9 -3 9
-9 14 -13 12 -4 -3 -8 4 -8 15 -1 12 3 17 9 13 7 -4 8 -2 4 5 -4 6 -11 9 -16
6 -10 -6 -35 23 -26 32 3 3 6 1 6 -5 0 -7 6 -12 13 -12 21 0 -47 57 -75 62
-15 3 -27 2 -26 -1z m671 -476 c-3 -9 -8 -14 -10 -11 -3 3 -2 9 2 15 9 16 15
13 8 -4z m-803 1 c0 -2 -8 -10 -17 -17 -16 -13 -17 -12 -4 4 13 16 21 21 21
13z m700 -70 c0 -2 -7 -7 -16 -10 -8 -3 -12 -2 -9 4 6 10 25 14 25 6z m-10
-110 c0 -2 -8 -10 -17 -17 -16 -13 -17 -12 -4 4 13 16 21 21 21 13z m-2063
-90 c0 -8 -6 -12 -15 -9 -11 5 -11 7 0 14 7 5 13 9 14 9 0 0 1 -6 1 -14z
m1913 -50 c0 -2 -7 -7 -16 -10 -8 -3 -12 -2 -9 4 6 10 25 14 25 6z m-1525 -34
c-3 -3 -11 0 -18 7 -9 10 -8 11 6 5 10 -3 15 -9 12 -12z m646 -225 c-10 -9
-11 -8 -5 6 3 10 9 15 12 12 3 -3 0 -11 -7 -18z m84 -58 c-4 -5 -12 -9 -18 -8
-9 0 -8 2 1 6 6 2 9 10 6 15 -4 7 -2 8 5 4 6 -4 9 -12 6 -17z"/>
<path d="M4225 3110 c-3 -6 1 -7 9 -4 18 7 21 14 7 14 -6 0 -13 -4 -16 -10z"/>
<path d="M2575 3100 c-3 -5 -1 -10 4 -10 6 0 11 5 11 10 0 6 -2 10 -4 10 -3 0
-8 -4 -11 -10z"/>
<path d="M4225 3040 c-3 -5 -1 -10 4 -10 6 0 11 5 11 10 0 6 -2 10 -4 10 -3 0
-8 -4 -11 -10z"/>
<path d="M2816 2869 c3 -5 0 -9 -7 -9 -8 0 -8 -4 1 -15 11 -13 10 -14 -3 -9
-13 4 -15 0 -11 -19 2 -14 0 -29 -6 -32 -6 -4 -7 -11 -4 -17 4 -6 2 -8 -3 -5
-6 4 -17 -1 -24 -10 -10 -12 -10 -14 -1 -9 17 10 15 -4 -5 -26 -16 -18 -16
-19 3 -13 18 6 18 6 2 -8 -20 -16 -25 -42 -6 -31 7 4 8 3 4 -5 -6 -9 -11 -9
-21 -1 -11 9 -12 6 -8 -12 4 -18 3 -20 -6 -8 -8 12 -10 11 -8 -7 0 -12 4 -20
8 -17 8 5 6 -13 -6 -38 -4 -10 -11 -15 -16 -12 -5 3 -9 0 -9 -6 0 -6 -4 -9 -8
-6 -5 3 -8 -13 -7 -34 1 -36 -5 -45 -28 -41 -5 1 -6 -3 -2 -9 4 -6 1 -17 -5
-25 -8 -9 -8 -15 -2 -15 6 0 13 6 15 13 3 6 6 7 6 2 1 -6 -10 -22 -24 -37 -14
-15 -25 -31 -25 -35 1 -4 10 3 20 16 24 28 26 20 4 -14 -9 -14 -23 -25 -32
-25 -13 0 -12 -3 4 -14 17 -13 17 -15 2 -21 -9 -4 -19 -14 -22 -22 -6 -14 -4
-14 11 -2 16 12 17 12 6 -2 -7 -9 -11 -18 -8 -21 3 -3 -3 -11 -12 -19 -16 -13
-17 -12 -4 4 15 20 7 23 -13 5 -11 -11 -11 -15 2 -24 12 -9 11 -14 -12 -38
-21 -24 -24 -32 -14 -50 10 -19 10 -20 -6 -7 -14 12 -16 12 -10 -4 6 -14 4
-16 -7 -10 -12 7 -12 6 -1 -7 10 -13 10 -18 1 -24 -8 -5 -9 -3 -4 6 5 9 4 11
-4 6 -9 -6 -9 -12 1 -24 7 -10 8 -14 4 -10 -5 4 -15 0 -23 -10 -8 -9 -11 -11
-7 -3 5 10 3 12 -5 7 -9 -6 -9 -11 -1 -21 8 -10 8 -15 -1 -21 -8 -4 -9 -3 -5
4 4 7 2 12 -3 12 -11 0 -15 -15 -12 -34 1 -5 -4 -4 -13 3 -11 9 -16 9 -22 0
-5 -8 -3 -9 6 -4 8 5 11 4 6 -3 -4 -6 -13 -9 -21 -5 -9 3 -15 -1 -16 -8 0 -8
-4 -5 -9 6 -8 18 -9 18 -10 -5 -1 -14 -4 -19 -7 -12 -4 10 -9 9 -19 -5 -13
-17 -14 -17 -7 2 3 11 3 17 -2 13 -4 -4 -15 -2 -23 5 -10 8 -13 8 -9 1 4 -7 0
-15 -9 -18 -11 -4 -15 -2 -11 8 4 10 1 13 -8 10 -7 -3 -26 2 -42 11 -27 16
-27 16 -8 0 13 -11 15 -16 5 -13 -8 3 -21 15 -27 29 -7 13 -13 21 -13 17 0 -5
-11 2 -25 14 -18 15 -22 25 -14 34 8 10 5 11 -12 7 -19 -5 -21 -3 -17 15 3 12
3 21 -1 20 -19 -2 -22 4 -10 19 10 11 10 14 2 9 -8 -4 -13 -2 -13 6 0 9 -3 9
-10 -2 -5 -8 -10 -10 -10 -4 0 5 5 15 11 21 8 8 7 13 -2 18 -8 6 -10 4 -4 -5
5 -8 4 -11 -3 -7 -5 4 -8 17 -4 29 3 14 2 19 -6 14 -7 -4 -12 -1 -12 9 0 10 5
13 13 9 6 -4 4 2 -6 13 -9 11 -14 23 -10 28 5 4 2 5 -5 1 -10 -6 -10 -11 -1
-22 8 -10 8 -14 0 -14 -11 0 -15 13 -12 38 1 6 -3 12 -9 12 -5 0 -10 5 -10 11
0 5 4 8 8 5 5 -3 9 2 9 11 0 9 -9 18 -19 21 -11 2 -17 10 -14 18 3 7 0 16 -6
20 -7 5 -8 2 -3 -6 5 -9 4 -11 -3 -6 -9 5 -9 13 -1 28 9 16 8 19 -2 13 -9 -6
-11 -2 -7 12 3 12 0 20 -8 20 -7 0 -10 -5 -7 -10 3 -6 1 -7 -5 -3 -6 4 -8 14
-5 23 5 12 3 14 -8 8 -12 -8 -12 -6 0 8 11 14 11 17 0 17 -11 0 -11 2 1 10 12
8 12 10 -5 10 -15 0 -17 3 -7 9 10 6 9 10 -7 14 -12 3 -19 1 -15 -4 3 -5 -2
-9 -10 -9 -9 0 -13 -6 -10 -14 3 -8 0 -17 -7 -22 -7 -4 -10 -3 -6 3 3 5 1 10
-6 10 -7 0 -13 -8 -13 -18 0 -10 5 -15 11 -12 5 3 -6 -9 -25 -27 -31 -30 -32
-32 -10 -26 l25 7 -25 -15 c-14 -8 -28 -12 -32 -10 -4 3 -5 -1 -2 -9 3 -8 0
-18 -5 -22 -6 -3 -9 -11 -5 -16 3 -5 0 -8 -8 -7 -7 2 -12 -2 -11 -7 1 -6 -7
-11 -17 -11 -10 0 -16 5 -14 11 3 5 -1 2 -9 -7 -10 -13 -16 -15 -25 -6 -9 9
-12 8 -12 -6 0 -15 -3 -16 -15 -6 -8 7 -15 8 -15 3 0 -10 -6 -11 -55 -14 -13
-1 -22 -5 -19 -10 3 -5 0 -9 -6 -9 -7 0 -10 7 -6 15 3 8 1 15 -4 15 -6 0 -10
-6 -10 -12 0 -10 -3 -9 -9 1 -6 8 -16 11 -31 6 -17 -5 -21 -4 -15 5 5 9 4 11
-4 6 -6 -4 -9 -12 -6 -17 4 -5 2 -9 -3 -9 -17 0 -22 13 -10 29 8 9 3 8 -10 -3
-23 -20 -68 -33 -58 -17 3 5 -2 15 -12 22 -15 13 -16 12 -4 -3 9 -11 10 -18 2
-23 -5 -3 -10 -1 -10 5 0 8 -6 8 -20 0 -11 -6 -20 -7 -20 -3 0 4 -5 2 -12 -5
-7 -7 -16 -12 -22 -12 -5 0 -1 7 10 15 18 14 17 15 -11 9 -29 -6 -29 -6 -10
10 19 17 19 17 -5 4 -14 -7 -29 -11 -35 -10 -5 1 2 -9 17 -22 15 -13 24 -28
20 -32 -4 -5 2 -2 13 6 11 8 17 11 13 6 -4 -5 -2 -18 4 -30 7 -11 11 -25 10
-29 -1 -4 8 -2 20 4 21 11 22 11 9 -4 -12 -15 -11 -17 7 -17 12 0 24 -5 28
-12 5 -7 3 -8 -6 -3 -9 5 -11 4 -6 -3 4 -7 13 -12 21 -12 8 0 17 -4 20 -10 3
-6 -2 -8 -12 -5 -10 3 -4 -1 12 -9 17 -8 26 -15 20 -16 -6 0 -6 -3 1 -8 6 -4
16 -16 23 -27 11 -19 12 -18 6 5 -4 20 -2 19 12 -7 9 -18 25 -35 35 -39 10 -3
18 -12 18 -20 0 -8 6 -14 13 -14 8 0 22 -10 33 -22 l19 -23 -24 20 -25 20 20
-26 c10 -15 25 -24 31 -22 8 3 13 -3 13 -13 0 -16 2 -17 10 -4 8 12 10 10 10
-10 0 -20 2 -22 11 -10 9 12 10 11 6 -7 -4 -16 -1 -20 11 -16 11 5 14 2 9 -11
-4 -9 -3 -15 2 -12 5 3 14 -1 21 -9 7 -8 17 -15 23 -15 15 0 58 -50 52 -61 -3
-5 1 -6 9 -3 9 3 16 2 16 -3 0 -5 7 -18 15 -29 15 -19 15 -19 9 1 -7 20 -7 20
9 0 8 -10 14 -24 13 -30 -2 -5 -1 -7 1 -2 8 13 25 7 20 -8 -4 -8 -1 -17 5 -21
7 -4 8 -3 4 4 -4 7 -1 12 7 12 10 0 14 -7 10 -22 -3 -17 -2 -19 5 -10 7 11 10
11 16 -3 3 -10 11 -13 18 -9 8 5 7 0 -2 -11 -8 -10 -10 -16 -4 -12 6 3 20 -1
30 -9 10 -9 13 -12 5 -8 -9 5 -12 3 -7 -4 4 -7 12 -12 17 -12 15 0 39 -26 32
-34 -6 -6 12 -10 30 -7 5 1 6 -3 2 -9 -3 -5 2 -10 12 -10 15 0 16 -2 3 -10
-13 -8 -12 -10 3 -10 10 0 15 -5 12 -10 -4 -6 -1 -9 6 -8 7 2 18 -8 25 -20 8
-17 13 -20 17 -10 4 9 6 8 6 -4 1 -20 34 -41 46 -30 5 4 5 2 2 -4 -3 -6 3 -16
13 -24 10 -8 17 -17 14 -22 -5 -8 11 -12 31 -8 5 1 7 -1 3 -5 -12 -12 29 -48
44 -39 11 6 11 5 0 -8 -10 -13 -8 -18 12 -32 14 -9 30 -16 36 -16 6 0 8 -5 4
-12 -5 -7 -2 -9 8 -5 10 3 15 0 14 -11 0 -9 6 -17 14 -17 8 0 17 -9 20 -19 3
-10 17 -25 30 -33 25 -15 25 -15 3 2 -13 10 -23 21 -23 26 0 5 11 -1 25 -13
14 -12 25 -27 25 -34 0 -7 9 -16 20 -19 11 -4 17 -11 14 -17 -4 -6 2 -6 15 1
23 13 28 3 9 -19 -8 -7 -3 -6 11 3 18 12 29 13 44 6 12 -7 17 -7 13 -1 -3 5 6
18 20 27 18 12 24 13 19 4 -3 -8 -1 -7 7 2 7 9 18 17 23 17 6 1 10 6 10 12 0
5 6 15 13 22 11 11 12 9 7 -7 -6 -16 -5 -17 4 -5 6 8 8 24 5 35 -3 11 -2 15 3
10 10 -13 28 -13 40 -1 5 5 3 6 -4 2 -8 -4 -13 -1 -13 8 0 9 6 13 14 10 8 -3
17 0 22 7 4 8 3 10 -4 5 -7 -4 -12 -4 -12 -1 0 3 13 11 30 16 16 6 28 15 25
19 -3 4 2 10 10 14 8 3 15 13 15 21 0 10 5 13 12 9 8 -5 9 -2 5 10 -5 14 -3
15 13 6 15 -8 18 -7 15 3 -3 7 1 21 10 32 15 20 15 20 8 0 -6 -17 -5 -18 9 -5
9 8 14 17 13 20 -2 3 0 12 6 20 7 13 9 13 9 1 0 -9 6 -7 19 7 10 12 21 18 25
15 4 -4 4 0 0 10 -4 12 -1 17 10 17 9 0 15 3 15 8 -1 4 -1 14 0 22 1 13 2 13
11 0 7 -11 11 -9 19 13 6 15 13 27 16 27 4 0 3 -6 -1 -12 -4 -7 4 -2 17 12 13
13 23 26 21 27 -6 7 23 31 31 26 5 -3 11 4 14 15 3 13 10 19 19 15 8 -3 14 -2
13 3 -4 23 2 33 18 27 11 -4 14 -3 9 5 -4 7 -1 12 9 12 11 0 15 5 11 15 -4 10
1 15 14 15 11 0 19 3 17 8 -3 10 80 92 87 85 3 -4 6 1 6 10 0 10 7 17 16 17 8
0 13 3 11 8 -2 4 7 18 21 32 16 16 20 18 11 5 -13 -18 -13 -19 4 -6 9 7 17 19
17 26 0 7 8 19 17 26 11 10 14 10 9 2 -4 -7 -5 -13 -1 -13 3 0 10 12 15 26 6
14 14 23 19 20 4 -3 13 6 19 19 8 17 16 23 28 18 11 -4 15 -2 11 4 -4 6 1 19
11 30 9 10 13 12 7 3 -9 -13 -8 -13 8 -1 9 7 17 20 17 28 0 9 6 13 14 10 10
-4 19 4 28 23 7 16 16 26 20 24 4 -3 12 6 18 20 5 14 12 26 15 26 4 0 3 -6 -1
-12 -5 -9 -3 -9 9 1 9 7 14 18 10 24 -4 6 0 8 10 4 11 -4 14 -2 10 9 -4 10 0
12 13 7 12 -4 15 -3 10 5 -4 7 -2 12 4 12 6 0 8 5 5 10 -4 6 -1 17 5 25 10 11
10 15 1 15 -7 0 -9 5 -5 12 4 7 3 8 -5 4 -6 -4 -9 -12 -6 -17 4 -5 1 -9 -4 -9
-6 0 -11 10 -12 23 0 12 -3 16 -6 10 -8 -20 -22 -15 -35 12 -9 19 -14 22 -21
13 -6 -9 -7 -6 -4 9 3 14 0 21 -7 20 -6 -1 -10 4 -8 12 3 12 1 12 -14 0 -12
-9 -15 -9 -10 -1 4 7 2 12 -5 12 -7 0 -10 3 -6 6 8 8 -18 34 -34 34 -8 0 -8 5
2 18 7 9 10 14 5 10 -10 -8 -47 23 -40 34 3 4 -1 5 -9 2 -8 -3 -18 0 -23 7 -4
7 -3 10 3 6 5 -3 10 0 10 7 0 8 -6 12 -13 9 -6 -2 -15 1 -20 8 -4 8 -3 10 4 5
7 -4 12 -2 12 3 0 6 -7 11 -16 11 -9 0 -12 5 -8 12 4 7 3 8 -4 4 -7 -4 -12
-14 -12 -22 0 -8 -4 -12 -10 -9 -5 3 -10 1 -10 -6 0 -19 -58 -80 -64 -66 -3 9
-5 8 -5 -1 -1 -7 -6 -10 -13 -6 -7 4 -8 3 -4 -5 4 -7 -5 -26 -23 -47 -17 -19
-31 -30 -31 -25 0 5 4 13 10 16 5 3 15 16 21 28 8 17 4 15 -18 -8 -16 -16 -28
-33 -26 -36 1 -4 -8 -9 -22 -11 -16 -3 -22 -1 -18 6 3 6 -7 0 -23 -14 -15 -14
-22 -17 -15 -7 8 10 9 17 3 17 -6 0 -14 -5 -17 -10 -4 -6 -11 -8 -16 -5 -5 4
-9 1 -9 -6 0 -6 -9 -1 -21 12 -11 13 -18 19 -15 13 3 -6 -1 -11 -8 -11 -9 0
-12 7 -8 16 5 14 4 14 -13 1 -15 -12 -17 -12 -10 -1 6 11 4 13 -9 8 -9 -4 -15
-3 -12 2 6 8 -17 23 -39 25 -5 1 -9 9 -7 19 2 9 -2 17 -9 17 -6 0 -8 7 -5 16
4 10 2 13 -6 8 -7 -5 -9 0 -6 14 4 15 2 22 -9 22 -8 0 -11 -4 -8 -10 4 -6 -1
-7 -11 -3 -11 4 -13 8 -6 11 7 2 9 9 6 14 -4 6 -2 8 4 4 12 -7 10 20 -3 31 -4
4 -5 2 -1 -4 4 -7 5 -13 2 -13 -3 0 -10 10 -17 21 -9 17 -8 20 2 14 8 -6 10
-4 4 5 -4 7 -2 16 6 21 9 6 10 9 2 9 -6 0 -15 -5 -18 -10 -12 -19 -25 0 -15
21 6 10 7 19 3 18 -20 -3 -24 2 -13 16 9 11 9 15 1 15 -7 0 -9 5 -5 13 5 7 0
6 -11 -3 -16 -13 -18 -13 -13 0 3 8 -2 24 -11 35 -15 19 -15 19 3 5 18 -14 19
-14 8 6 -6 12 -9 24 -7 28 3 3 2 4 -2 1 -3 -3 -12 3 -19 13 -9 13 -10 20 -1
31 9 12 9 13 0 7 -8 -4 -13 -1 -13 9 0 10 -5 13 -12 9 -10 -6 -10 -5 -1 7 8 9
9 20 3 29 -14 21 -12 32 3 24 6 -4 8 -3 4 1 -10 12 -38 15 -31 4z m-125 -342
c-10 -9 -11 -8 -5 6 3 10 9 15 12 12 3 -3 0 -11 -7 -18z m-1136 -237 c-3 -5
-12 -10 -18 -10 -7 0 -6 4 3 10 19 12 23 12 15 0z m-177 -65 c-3 -3 -9 2 -12
12 -6 14 -5 15 5 6 7 -7 10 -15 7 -18z m1179 -60 c0 -8 -4 -12 -9 -9 -5 3 -6
10 -3 15 9 13 12 11 12 -6z m-227 -195 c0 -5 -5 -10 -11 -10 -5 0 -7 5 -4 10
3 6 8 10 11 10 2 0 4 -4 4 -10z m-576 -109 c-2 -3 -12 3 -22 13 -16 17 -16 18
5 5 12 -7 20 -15 17 -18z m577 -548 c13 -16 12 -17 -3 -4 -10 7 -18 15 -18 17
0 8 8 3 21 -13z"/>
<path d="M3550 2860 c0 -5 5 -10 11 -10 5 0 7 5 4 10 -3 6 -8 10 -11 10 -2 0
-4 -4 -4 -10z"/>
<path d="M3345 2850 c-3 -5 1 -10 10 -10 9 0 13 5 10 10 -3 6 -8 10 -10 10 -2
0 -7 -4 -10 -10z"/>
<path d="M4165 2850 c-3 -6 1 -7 9 -4 18 7 21 14 7 14 -6 0 -13 -4 -16 -10z"/>
<path d="M940 2840 c0 -5 5 -10 11 -10 5 0 7 5 4 10 -3 6 -8 10 -11 10 -2 0
-4 -4 -4 -10z"/>
<path d="M2143 2805 c0 -8 4 -12 9 -9 5 3 6 10 3 15 -9 13 -12 11 -12 -6z"/>
<path d="M1806 2773 c-6 -14 -5 -15 5 -6 7 7 10 15 7 18 -3 3 -9 -2 -12 -12z"/>
<path d="M2866 2758 c3 -5 10 -6 15 -3 13 9 11 12 -6 12 -8 0 -12 -4 -9 -9z"/>
<path d="M1905 2741 c-3 -5 -2 -12 3 -15 5 -3 9 1 9 9 0 17 -3 19 -12 6z"/>
<path d="M2510 2722 c0 -5 7 -9 15 -9 8 0 12 4 9 9 -3 4 -9 8 -15 8 -5 0 -9
-4 -9 -8z"/>
<path d="M997 2679 c7 -7 15 -10 18 -7 3 3 -2 9 -12 12 -14 6 -15 5 -6 -5z"/>
<path d="M2216 2632 c-3 -5 1 -9 9 -9 8 0 12 4 9 9 -3 4 -7 8 -9 8 -2 0 -6 -4
-9 -8z"/>
<path d="M1320 2610 l-25 -21 28 12 c15 7 27 16 27 21 0 11 -1 10 -30 -12z"/>
<path d="M1154 2604 c-18 -14 -18 -15 4 -4 12 6 22 13 22 15 0 8 -5 6 -26 -11z"/>
<path d="M1216 2607 c3 -10 9 -15 12 -12 3 3 0 11 -7 18 -10 9 -11 8 -5 -6z"/>
<path d="M1474 2604 c-18 -14 -18 -15 4 -4 12 6 22 13 22 15 0 8 -5 6 -26 -11z"/>
<path d="M1536 2607 c3 -10 9 -15 12 -12 3 3 0 11 -7 18 -10 9 -11 8 -5 -6z"/>
<path d="M3515 2609 c-4 -6 -5 -12 -2 -15 2 -3 7 2 10 11 7 17 1 20 -8 4z"/>
<path d="M3235 2600 c-3 -5 -1 -10 4 -10 6 0 11 5 11 10 0 6 -2 10 -4 10 -3 0
-8 -4 -11 -10z"/>
<path d="M2700 2590 c-9 -6 -10 -10 -3 -10 6 0 15 5 18 10 8 12 4 12 -15 0z"/>
<path d="M1505 2520 c-3 -6 1 -7 9 -4 18 7 21 14 7 14 -6 0 -13 -4 -16 -10z"/>
<path d="M3389 2473 c-13 -16 -12 -17 4 -4 9 7 17 15 17 17 0 8 -8 3 -21 -13z"/>
<path d="M3951 2454 c0 -11 3 -14 6 -6 3 7 2 16 -1 19 -3 4 -6 -2 -5 -13z"/>
<path d="M2073 2445 c0 -8 4 -15 9 -15 4 0 8 4 8 9 0 6 -4 12 -8 15 -5 3 -9
-1 -9 -9z"/>
<path d="M4155 2440 c3 -5 8 -10 11 -10 2 0 4 5 4 10 0 6 -5 10 -11 10 -5 0
-7 -4 -4 -10z"/>
<path d="M1536 2422 c-4 -7 -12 -10 -17 -7 -15 10 -10 -2 8 -16 11 -10 14 -10
9 -1 -9 15 6 16 20 2 7 -7 11 -6 11 4 0 8 -4 13 -8 10 -4 -2 -9 1 -11 8 -3 9
-6 9 -12 0z"/>
<path d="M3029 2413 c-7 -10 -9 -15 -5 -11 5 4 16 2 25 -5 14 -10 14 -10 4 4
-7 9 -10 19 -6 22 3 4 4 7 1 7 -3 0 -12 -8 -19 -17z"/>
<path d="M1030 2416 c0 -2 7 -7 16 -10 8 -3 12 -2 9 4 -6 10 -25 14 -25 6z"/>
<path d="M1256 2412 c-3 -5 1 -9 9 -9 8 0 12 4 9 9 -3 4 -7 8 -9 8 -2 0 -6 -4
-9 -8z"/>
<path d="M1350 2416 c0 -2 7 -7 16 -10 8 -3 12 -2 9 4 -6 10 -25 14 -25 6z"/>
<path d="M1784 2358 l-19 -23 23 19 c21 18 27 26 19 26 -2 0 -12 -10 -23 -22z"/>
<path d="M2110 2376 c0 -2 8 -10 18 -17 15 -13 16 -12 3 4 -13 16 -21 21 -21
13z"/>
<path d="M3150 2356 c0 -2 7 -7 16 -10 8 -3 12 -2 9 4 -6 10 -25 14 -25 6z"/>
<path d="M1450 2321 c0 -6 4 -13 10 -16 6 -3 7 1 4 9 -7 18 -14 21 -14 7z"/>
<path d="M1600 2326 c0 -2 8 -10 18 -17 15 -13 16 -12 3 4 -13 16 -21 21 -21
13z"/>
<path d="M2264 2309 c-3 -6 1 -18 10 -27 10 -11 16 -12 16 -4 0 7 -5 12 -11
12 -6 0 -9 7 -5 15 6 17 0 20 -10 4z"/>
<path d="M2465 2280 c-3 -5 1 -10 10 -10 9 0 13 5 10 10 -3 6 -8 10 -10 10 -2
0 -7 -4 -10 -10z"/>
</g>
</svg>
